<svg xmlns="http://www.w3.org/2000/svg" width="123.437" height="123.439" viewBox="0 0 123.437 123.439">
  <g id="Group_1" data-name="Group 1" transform="translate(-80.803 -49.459)">
    <path id="Path_1" data-name="Path 1" d="M80.8,72.416V49.48h33.539s20.984-1.36,20.966,17.655c0,0,.633,8.029-7.916,11.755,0,0,8.941,1.967,9.743,13.534.81,11.675-8.984,16.906-18.275,17.662,0,0-.663,10.915,6.846,17.517s20.057,5.071,26.33-.028c5.931-4.822,9.614-17.8,3.958-28.37a17.646,17.646,0,0,0-12.911-9.317S142,82.775,138.1,79.174c0,0,31.6-2.08,31.983,32.9,0,0,14.225-1.609,23.356,6.188a30.3,30.3,0,0,1,10.788,23.7s.885,15.45-10.439,24.48c0,0-7.067,6.628-20.009,6.449H149.852V147.156a34.763,34.763,0,0,0,11.4-5.263v19.983h12.527s18.882.864,19.051-20a22.737,22.737,0,0,0-3.015-10.773s-4.243-8.282-16.036-8.184h-5.72a28.475,28.475,0,0,1-17.731,17.811,38.147,38.147,0,0,1-22.923.043s-9.7-2.716-14.992-11.683c0,0-4.882-6.152-4.846-18.8l-8,0V99.626h14.779s7.16.2,10.28-3.731a6.33,6.33,0,0,0,0-7.172s-2.762-4.439-10.28-4.714H99.563V73.946h14.779s9.538.579,9.57-6.55a7.169,7.169,0,0,0-2.045-4.8s-2.372-2.8-7.525-2.7H92.112V72.416Z" fill="#fff"/>
    <path id="Path_2" data-name="Path 2" d="M316.611,82.673V49.507H283.355V60.525h21.86V82.673Z" transform="translate(-112.382 -0.026)" fill="#fff"/>
    <path id="Path_3" data-name="Path 3" d="M80.8,252.233V285.4h33.257V274.381H92.2V252.233Z" transform="translate(0 -112.505)" fill="#fff"/>
    <path id="Path_4" data-name="Path 4" d="M91.812,110.466v-1.072h.146a1.242,1.242,0,0,0,.581-.1.347.347,0,0,0,.169-.327.359.359,0,0,0-.129-.291.522.522,0,0,0-.349-.108c-.243,0-.475.174-.7.523-.039.057-.068.1-.088.13l-.036.056a3.93,3.93,0,0,1-.714.877,1.44,1.44,0,0,1-.409.187,1.816,1.816,0,0,1-.5.065,1.373,1.373,0,0,1-1.029-.38,1.423,1.423,0,0,1-.374-1.045,1.535,1.535,0,0,1,.367-1.106,1.407,1.407,0,0,1,1.062-.382l.082,0,.081,0v1.048h-.062a.977.977,0,0,0-.5.1.327.327,0,0,0-.169.3.333.333,0,0,0,.118.266.467.467,0,0,0,.313.1q.319,0,.675-.572c.045-.069.081-.122.1-.158s.045-.073.081-.128a2.715,2.715,0,0,1,.657-.786,1.418,1.418,0,0,1,.391-.164,1.9,1.9,0,0,1,.476-.057,1.6,1.6,0,0,1,1.156.389,1.475,1.475,0,0,1,.406,1.114,1.538,1.538,0,0,1-.388,1.141,1.59,1.59,0,0,1-1.155.381h-.1c-.036,0-.093-.006-.17-.012m1.7,3.745h-5V112.9a5.219,5.219,0,0,1,.06-.938,1.021,1.021,0,0,1,.638-.795,1.609,1.609,0,0,1,.61-.105,1.567,1.567,0,0,1,.724.15,1.205,1.205,0,0,1,.481.469c.16-.361.54-.551,1.139-.571h.016l.273-.007q.844-.013,1.058-.279v1.366a2.014,2.014,0,0,1-.326.068,3.138,3.138,0,0,1-.365.021c-.08,0-.177,0-.29-.007l-.223-.006a1.158,1.158,0,0,0-.627.12.5.5,0,0,0-.169.432v.24h2Zm-2.919-1.156c0-.02,0-.045,0-.077s0-.054,0-.069a.732.732,0,0,0-.146-.516.667.667,0,0,0-.493-.15.587.587,0,0,0-.457.15.775.775,0,0,0-.135.516c0,.015,0,.038,0,.069s0,.057,0,.077Zm2.919,4.6h-5v-2.721h.97v1.558H90.4v-1.438h1v1.438h1.091v-1.558h1.016Zm0,3.935h-5v-1.218l3.084-.972q-.777.059-1.344.086c-.376.019-.695.028-.954.028h-.785v-1.042h5v1.22l-3.179.978q.621-.065,1.2-.1c.39-.023.766-.034,1.132-.034h.844Zm-2.74.76h2.74v.805l-.311.053a1.175,1.175,0,0,1,.3.388,1.145,1.145,0,0,1,.1.482,1.378,1.378,0,0,1-.114.563,1.287,1.287,0,0,1-.328.449,1.521,1.521,0,0,1-.708.335,7.967,7.967,0,0,1-1.506.1,8.47,8.47,0,0,1-1.212-.069,1.816,1.816,0,0,1-.682-.21,1.321,1.321,0,0,1-.495-.55,1.863,1.863,0,0,1-.165-.813,1.444,1.444,0,0,1,.4-1.111,1.7,1.7,0,0,1,1.2-.374l.089,0c.04,0,.072,0,.1,0v1.11h-.062a1.492,1.492,0,0,0-.616.092.312.312,0,0,0-.185.3.339.339,0,0,0,.227.341,3.668,3.668,0,0,0,1.062.092h.838a3.7,3.7,0,0,0,1.051-.088.322.322,0,0,0,.217-.325.364.364,0,0,0-.191-.343,1.319,1.319,0,0,0-.62-.108l-.15,0-.1,0v.458h-.873Zm2.74,5.051h-5v-1.169h5Zm-1.7,3.641v-1.071h.146a1.241,1.241,0,0,0,.581-.1.347.347,0,0,0,.169-.327.359.359,0,0,0-.129-.291.522.522,0,0,0-.349-.108c-.243,0-.475.174-.7.524-.039.056-.068.1-.088.13l-.036.055a3.918,3.918,0,0,1-.714.877,1.427,1.427,0,0,1-.409.187,1.8,1.8,0,0,1-.5.065,1.373,1.373,0,0,1-1.029-.38,1.422,1.422,0,0,1-.374-1.045,1.535,1.535,0,0,1,.367-1.106,1.408,1.408,0,0,1,1.062-.382l.082,0,.081,0v1.048h-.062a.977.977,0,0,0-.5.1.328.328,0,0,0-.169.3.333.333,0,0,0,.118.266.465.465,0,0,0,.313.1q.319,0,.675-.572c.045-.069.081-.122.1-.158s.045-.073.081-.127a2.725,2.725,0,0,1,.657-.786,1.418,1.418,0,0,1,.391-.164,1.9,1.9,0,0,1,.476-.057,1.6,1.6,0,0,1,1.156.389,1.475,1.475,0,0,1,.406,1.114,1.538,1.538,0,0,1-.388,1.141,1.588,1.588,0,0,1-1.155.381h-.1C91.947,131.055,91.889,131.051,91.812,131.044Zm1.7,3.292h-5v-2.72h.97v1.558H90.4v-1.438h1v1.438h1.091v-1.558h1.016Zm0,3.877h-5v-1.289a3.347,3.347,0,0,1,.122-1.049,1.082,1.082,0,0,1,.417-.542,1.536,1.536,0,0,1,.6-.22,14.266,14.266,0,0,1,2.73,0,1.564,1.564,0,0,1,.6.22,1.08,1.08,0,0,1,.417.542,3.361,3.361,0,0,1,.122,1.049Zm-4.068-1.176H92.6a.372.372,0,0,0,.007-.068v-.1a.838.838,0,0,0-.052-.313.456.456,0,0,0-.165-.2.8.8,0,0,0-.351-.089c-.173-.016-.514-.024-1.02-.024h-.227c-.416,0-.7.008-.843.022a.659.659,0,0,0-.3.085.409.409,0,0,0-.158.2.939.939,0,0,0-.052.336c0,.041,0,.072,0,.1S89.437,137.02,89.439,137.038Zm4.068,6.37h-5V140.68h.97v1.552h.909v-1.438h1.006v1.438h2.115Zm-2.5,4.065a9.564,9.564,0,0,1-1.318-.065,1.7,1.7,0,0,1-.65-.215,1.321,1.321,0,0,1-.492-.562,1.973,1.973,0,0,1-.161-.835,1.946,1.946,0,0,1,.161-.832,1.328,1.328,0,0,1,.492-.556,1.654,1.654,0,0,1,.653-.221,13.314,13.314,0,0,1,2.627,0,1.656,1.656,0,0,1,.654.221,1.319,1.319,0,0,1,.491.556,2.217,2.217,0,0,1,0,1.666,1.338,1.338,0,0,1-.491.562,1.694,1.694,0,0,1-.65.215A9.568,9.568,0,0,1,91.007,147.473Zm.451-2.156h-.9a2.884,2.884,0,0,0-1.027.105.4.4,0,0,0-.2.381.383.383,0,0,0,.2.373,2.92,2.92,0,0,0,1.022.1h.9a2.924,2.924,0,0,0,1.017-.1.451.451,0,0,0,0-.755A2.888,2.888,0,0,0,91.458,145.317Zm2.049,7.713h-5v-1.288a3.346,3.346,0,0,1,.122-1.049,1.083,1.083,0,0,1,.417-.542,1.536,1.536,0,0,1,.6-.22,14.269,14.269,0,0,1,2.73,0,1.563,1.563,0,0,1,.6.22,1.082,1.082,0,0,1,.417.542,3.36,3.36,0,0,1,.122,1.049Zm-4.068-1.175H92.6a.371.371,0,0,0,.007-.068v-.1a.836.836,0,0,0-.052-.313.457.457,0,0,0-.165-.2.8.8,0,0,0-.351-.089c-.173-.017-.514-.024-1.02-.024h-.227c-.416,0-.7.008-.843.022a.653.653,0,0,0-.3.085.408.408,0,0,0-.158.2.942.942,0,0,0-.052.336c0,.041,0,.072,0,.1S89.437,151.837,89.439,151.855Zm4.068,5.072h-5v-1.315a5.216,5.216,0,0,1,.06-.938,1.019,1.019,0,0,1,.638-.795,1.6,1.6,0,0,1,.61-.106,1.567,1.567,0,0,1,.724.151,1.2,1.2,0,0,1,.481.469c.16-.361.54-.55,1.139-.571h.016c.063,0,.153,0,.273-.007q.844-.013,1.058-.279V154.9a1.969,1.969,0,0,1-.326.068,3.04,3.04,0,0,1-.365.021c-.08,0-.177,0-.29-.007s-.189-.007-.223-.007a1.157,1.157,0,0,0-.627.12.5.5,0,0,0-.169.432v.24h2Zm-2.919-1.156c0-.02,0-.046,0-.076s0-.055,0-.07a.732.732,0,0,0-.146-.516.669.669,0,0,0-.493-.15.588.588,0,0,0-.457.15.775.775,0,0,0-.135.516c0,.016,0,.039,0,.07s0,.056,0,.076Zm2.919,5.172-5-1.09v-1.39l5-1.079v1.169l-.958.146v.918l.958.145ZM91.647,159.5v-.672l-2.182.335Zm-.639,5.15a9.5,9.5,0,0,1-1.318-.065,1.7,1.7,0,0,1-.65-.214,1.324,1.324,0,0,1-.492-.562,1.976,1.976,0,0,1-.161-.835,1.949,1.949,0,0,1,.161-.832,1.331,1.331,0,0,1,.492-.556,1.654,1.654,0,0,1,.653-.221,13.31,13.31,0,0,1,2.627,0,1.656,1.656,0,0,1,.654.221,1.324,1.324,0,0,1,.491.556,2.218,2.218,0,0,1,0,1.667,1.341,1.341,0,0,1-.491.562,1.694,1.694,0,0,1-.65.214A9.5,9.5,0,0,1,91.007,164.648Zm.451-2.156h-.9a2.881,2.881,0,0,0-1.027.106.4.4,0,0,0-.2.381.382.382,0,0,0,.2.373,2.909,2.909,0,0,0,1.022.1h.9a2.912,2.912,0,0,0,1.017-.1.451.451,0,0,0,0-.755A2.9,2.9,0,0,0,91.458,162.493Zm2.049,5.912h-5v-1.257a5.267,5.267,0,0,1,.045-.82,1.288,1.288,0,0,1,.153-.43,1.063,1.063,0,0,1,.428-.408,1.353,1.353,0,0,1,.63-.138,1.266,1.266,0,0,1,.578.128,1.641,1.641,0,0,1,.494.41,1.183,1.183,0,0,1,.459-.5,1.377,1.377,0,0,1,.7-.168,1.747,1.747,0,0,1,.633.114,1.467,1.467,0,0,1,.51.318,1.068,1.068,0,0,1,.289.48,3.365,3.365,0,0,1,.084.883Zm-.883-1.169v-.1a.785.785,0,0,0-.172-.552.67.67,0,0,0-.513-.185.566.566,0,0,0-.467.182.9.9,0,0,0-.147.575v.081Zm-2.163,0v-.074a.759.759,0,0,0-.143-.509.569.569,0,0,0-.448-.164.5.5,0,0,0-.4.163.68.68,0,0,0-.142.464c0,.032,0,.057,0,.074a.313.313,0,0,0,0,.043Z" transform="translate(-4.208 -32.177)" fill="#fff"/>
  </g>
</svg>
